<svg version="1.1" xmlns="http://www.w3.org/2000/svg" xmlns:xlink="http://www.w3.org/1999/xlink" x="0px" y="0px"
   viewBox="0 0 250.7 250.5" style="enable-background:new 0 0 250.7 250.5;" xml:space="preserve">
  <style type="text/css">
    .st1{fill:#2c3233;}
  </style>
  <path class="st1" d="M8.4,195.5C6,187.8,4.8,181.4,4,176.2c-3.3-21.1-3.5-40-3.2-55.6C1.2,89.7,1.6,73.8,7.7,54
      c4-13.1,8.3-20.9,14.3-27.5c7.2-7.8,15.6-12.4,26-16.3c9-3.4,29.2-10.1,76.9-9.7c33.6,0.3,51.9,3.8,62.1,6.2
      c26.3,6.1,35.3,12.9,40.7,18.7c3.3,3.5,10.1,10,14.8,29.6c4,16.7,7.4,37.4,8.1,61.3c0.9,31.9-3.3,59-8.1,79.3
      c-0.7,4.6-3.5,20.5-17.6,33.2c-11.6,10.5-24.5,14.5-29.5,15.2c-18.4,4.3-42.4,6.6-70.7,6.6c-28.2,0-52.1-3.8-70.5-8.1
      c-4.8-0.9-19.2-4.1-31.3-17C14.5,216.5,11.1,204.3,8.4,195.5z"/>
</svg>